<svg id="Layer_1" data-name="Layer 1" xmlns="http://www.w3.org/2000/svg" viewBox="0 0 141.73 141.73"><defs><style>.cls-1{fill:#b97f34;}</style></defs><g id="icon-0"><path class="cls-1" d="M21.26,70.87a49.61,49.61,0,1,1,49.61,49.6,49.61,49.61,0,0,1-49.61-49.6Zm49.61,45.51A45.52,45.52,0,1,0,25.35,70.87a45.52,45.52,0,0,0,45.52,45.51Z"/><path class="cls-1" d="M100.79,66.94,90.58,56.73V47.47a3.83,3.83,0,0,0-3.82-3.82H82.85a3.8,3.8,0,0,0-3.35,2l-7.32-7.32a1.85,1.85,0,0,0-2.63,0L40.94,66.94a1.86,1.86,0,0,0,1.32,3.17H49.7V91.52a8.67,8.67,0,0,0,8.66,8.66H83.87a8.68,8.68,0,0,0,8.66-8.66V70.11h6.94a1.86,1.86,0,0,0,1.32-3.17ZM73.29,82l3.58,4.18H73.29Zm-1.84,7.88H79v6.54H63.85V78.88H69.6v9.19A1.85,1.85,0,0,0,71.45,89.92Zm17.36,1.6a4.94,4.94,0,0,1-4.94,4.94H82.74V88.07a1.87,1.87,0,0,0-.45-1.21l-9.44-11a1.84,1.84,0,0,0-1.4-.65H62A1.85,1.85,0,0,0,60.16,77V96.46h-1.8a4.94,4.94,0,0,1-4.94-4.94V70.08H88.81Zm1.86-25.13H46.74L70.87,42.27,79.58,51a1.86,1.86,0,0,0,3.17-1.32l.1-2.3,4,.1v10a1.85,1.85,0,0,0,.54,1.32L95,66.39Z"/></g></svg>