<svg id="Layer_1" data-name="Layer 1" xmlns="http://www.w3.org/2000/svg" viewBox="0 0 283.46 141.73"><defs><style>.cls-1{fill:#b97f34;}</style></defs><polygon class="cls-1" points="143.56 61.97 130.21 46.6 129.07 46.6 129.07 68.64 132.2 68.64 132.2 53.47 145.41 68.64 146.57 68.64 146.57 46.6 143.56 46.6 143.56 61.97"/><polygon class="cls-1" points="156.71 63.08 151.65 51.75 148.51 51.75 155.12 66.65 151.91 73.99 155.05 73.99 164.78 51.75 161.62 51.75 156.71 63.08"/><path class="cls-1" d="M177.52,59.5a13,13,0,0,1-.29,3.68,3.57,3.57,0,0,1-1.43,1.9,4.36,4.36,0,0,1-2.58.73,4.56,4.56,0,0,1-2.64-.75,3.58,3.58,0,0,1-1.45-2,15.17,15.17,0,0,1-.27-3.55V51.75h-3v8a12.79,12.79,0,0,0,.8,5.18,6.13,6.13,0,0,0,2.46,2.79,7.79,7.79,0,0,0,4.05,1,7.69,7.69,0,0,0,4-1A6.28,6.28,0,0,0,179.7,65a12.32,12.32,0,0,0,.81-5.06V51.75h-3Z"/><path class="cls-1" d="M205.6,52.61a5.55,5.55,0,0,0-3.13-.89h0a8.27,8.27,0,0,0-4.07,1.05,5.15,5.15,0,0,0-1.86,1.93,4.78,4.78,0,0,0-.8-1.22,5.34,5.34,0,0,0-1.69-1.26,5.44,5.44,0,0,0-2.2-.5,6.07,6.07,0,0,0-3.93.71,7,7,0,0,0-2.51,2.29A9.64,9.64,0,0,0,184,59.66v9h2.92v-7.1a11.82,11.82,0,0,1,.43-4.42A3.55,3.55,0,0,1,189,55.26a5,5,0,0,1,2.45-.65,2.7,2.7,0,0,1,1.59.52,4.78,4.78,0,0,1,1.37,1.48A7.4,7.4,0,0,1,195,60.2v8.47h2.94V60.34c.26-2.41.63-3.34.9-3.71a4.12,4.12,0,0,1,3.29-2,3.28,3.28,0,0,1,1.84.49,2.64,2.64,0,0,1,1,1.3,10.22,10.22,0,0,1,.33,3.28v9h3v-9a12.47,12.47,0,0,0-.64-4.57A5.23,5.23,0,0,0,205.6,52.61Z"/><path class="cls-1" d="M220,51.35a8.16,8.16,0,0,0-3.63.81,8.49,8.49,0,0,0-2.17,1.53v-8h-2.92V61a11.36,11.36,0,0,0,1.6,4.38l0,.07a9,9,0,0,0,7,3.2,8.21,8.21,0,0,0,6-2.53,8.39,8.39,0,0,0,2.5-6.09A8.51,8.51,0,0,0,226,53.9,8.09,8.09,0,0,0,220,51.35ZM225.49,60a5.85,5.85,0,0,1-.78,2.93,5.7,5.7,0,0,1-2.08,2.14,5.62,5.62,0,0,1-2.88.77,5.41,5.41,0,0,1-4.05-1.69A5.69,5.69,0,0,1,214,59.93a6,6,0,0,1,.74-3,5.38,5.38,0,0,1,2.1-2.08,5.88,5.88,0,0,1,2.9-.77,5.57,5.57,0,0,1,2.82.77,5.69,5.69,0,0,1,2.1,2.17A5.9,5.9,0,0,1,225.49,60Z"/><path class="cls-1" d="M245.7,54.11a8.61,8.61,0,0,0-12.65,0,8.85,8.85,0,0,0,.13,12,8.13,8.13,0,0,0,6.23,2.59h0A8,8,0,0,0,245,66.23v2.52h3l.09-.36c0-.09,0-.18,0-8.32A8.51,8.51,0,0,0,245.7,54.11Zm-.79,5.94c-.41,3.57-2.24,5.47-5.53,5.81a5.73,5.73,0,0,1-2.82-.73,5.37,5.37,0,0,1-2-2.09,6,6,0,0,1-.76-2.94A5.67,5.67,0,0,1,235.43,56a5.28,5.28,0,0,1,3.95-1.71,5.14,5.14,0,0,1,3.9,1.7A5.82,5.82,0,0,1,244.91,60.05Z"/><polygon class="cls-1" points="129.26 74.39 129.26 77.4 137 77.4 128.05 96.61 140.98 96.61 140.98 93.6 132.81 93.6 141.69 74.39 129.26 74.39"/><path class="cls-1" d="M160.36,88.07a8.9,8.9,0,0,0-1.82-5.65,8.24,8.24,0,0,0-6.78-3.24,8,8,0,0,0-6.61,3.17A8.89,8.89,0,0,0,143.21,88a9,9,0,0,0,2.28,6,8,8,0,0,0,6.37,2.68,9.17,9.17,0,0,0,3.28-.55,8.43,8.43,0,0,0,2.63-1.62,9.44,9.44,0,0,0,2-2.79l.2-.41h-3.34a6.64,6.64,0,0,1-1,1.17,5.88,5.88,0,0,1-1.79,1,6.22,6.22,0,0,1-2.18.39,5,5,0,0,1-3.83-1.61,5.82,5.82,0,0,1-1.6-3.71h14.11Zm-4.22-4a6,6,0,0,1,.92,1.83H146.62a5.8,5.8,0,0,1,1.49-2.44,5.27,5.27,0,0,1,3.66-1.37,6,6,0,0,1,2.49.55A5.39,5.39,0,0,1,156.14,84Z"/><path class="cls-1" d="M169.77,93.78l-.18-.51-.48.26a2.64,2.64,0,0,1-2.48.13c-.71-.38-1.2-1.57-1.42-3.39V84.09h3.73V81.41H165.2V73.8h-3V90.59a6,6,0,0,0,.85,3.42,4.86,4.86,0,0,0,4.06,2.64h.18a7.91,7.91,0,0,0,2.82-.6l.45-.17-.18-.44C170.24,95.05,170,94.49,169.77,93.78Z"/><path class="cls-1" d="M184.15,79.59V87.4a13.21,13.21,0,0,1-.29,3.71A3.67,3.67,0,0,1,182.42,93a5,5,0,0,1-5.26,0,3.62,3.62,0,0,1-1.47-2,16.1,16.1,0,0,1-.26-3.57V79.59h-3v8a13,13,0,0,0,.8,5.22,6.17,6.17,0,0,0,2.48,2.81,7.84,7.84,0,0,0,4.09,1,7.73,7.73,0,0,0,4.06-1,6.32,6.32,0,0,0,2.47-2.77,12.33,12.33,0,0,0,.81-5.1v-8.2Z"/><g id="icon-0"><path class="cls-1" d="M35.43,70.87a41.3,41.3,0,1,1,41.3,41.29,41.3,41.3,0,0,1-41.3-41.29Zm41.3,37.88A37.89,37.89,0,1,0,38.84,70.87a37.88,37.88,0,0,0,37.89,37.88Z"/><path class="cls-1" d="M101.63,67.6l-8.5-8.51v-7.7A3.18,3.18,0,0,0,90,48.21H86.7a3.2,3.2,0,0,0-2.79,1.66l-6.09-6.09a1.56,1.56,0,0,0-2.19,0L51.82,67.6a1.55,1.55,0,0,0,1.09,2.64h6.2V88.05a7.21,7.21,0,0,0,7.21,7.21H87.55a7.21,7.21,0,0,0,7.21-7.21V70.24h5.78a1.55,1.55,0,0,0,1.09-2.64ZM78.75,80.17l3,3.48h-3Zm-1.54,6.55h6.32v5.45H70.89V77.54h4.78v7.64A1.54,1.54,0,0,0,77.21,86.72Zm14.46,1.33a4.12,4.12,0,0,1-4.12,4.12h-.94v-7a1.55,1.55,0,0,0-.37-1L78.38,75a1.54,1.54,0,0,0-1.17-.54H69.35A1.54,1.54,0,0,0,67.81,76V92.17H66.32a4.11,4.11,0,0,1-4.12-4.12V70.22H91.67Zm1.54-20.91H56.65L76.73,47.06,84,54.32a1.55,1.55,0,0,0,2.64-1.1l.08-1.91,3.34.08v8.35a1.54,1.54,0,0,0,.45,1.09l6.32,6.31Z"/></g></svg>