<svg id="Layer_1" data-name="Layer 1" xmlns="http://www.w3.org/2000/svg" viewBox="0 0 850.39 255.12"><defs><style>.cls-1{fill:#b97f33;}</style></defs><g id="icon-0"><path class="cls-1" d="M25.1,127.56A91.39,91.39,0,1,1,116.49,219,91.39,91.39,0,0,1,25.1,127.56Zm91.39,83.85a83.85,83.85,0,1,0-83.85-83.85,83.85,83.85,0,0,0,83.85,83.85Z"/><path class="cls-1" d="M171.61,120.32,152.8,101.51V84.45a7,7,0,0,0-7-7h-7.2a7,7,0,0,0-6.18,3.68L118.91,67.62a3.42,3.42,0,0,0-4.84,0l-52.71,52.7a3.44,3.44,0,0,0,2.43,5.85H77.5V165.6a16,16,0,0,0,16,16h47a16,16,0,0,0,16-16V126.17h12.78a3.42,3.42,0,0,0,2.42-5.85ZM121,148.14l6.59,7.7H121Zm-3.4,14.51h14v12.06h-28V142.32h10.58v16.93A3.41,3.41,0,0,0,117.56,162.65Zm32,2.95a9.12,9.12,0,0,1-9.12,9.11h-2.08V159.25a3.42,3.42,0,0,0-.82-2.22l-17.39-20.32a3.42,3.42,0,0,0-2.59-1.2H100.17a3.41,3.41,0,0,0-3.41,3.41v35.79H93.45a9.11,9.11,0,0,1-9.11-9.11V126.12h65.22ZM153,119.32H72.05l44.44-44.44,16,16.05a3.42,3.42,0,0,0,5.85-2.42l.18-4.24,7.38.18v18.48a3.46,3.46,0,0,0,1,2.42l14,14Z"/></g><polygon class="cls-1" points="295.08 118.47 254.96 72.29 251.55 72.29 251.55 138.5 260.94 138.5 260.94 92.92 300.63 138.5 304.13 138.5 304.13 72.29 295.08 72.29 295.08 118.47"/><polygon class="cls-1" points="334.56 121.81 319.37 87.77 309.93 87.77 329.8 132.53 320.16 154.58 329.59 154.58 358.83 87.77 349.31 87.77 334.56 121.81"/><path class="cls-1" d="M397.09,111.06c0,7.09-.46,9.92-.86,11.06a10.94,10.94,0,0,1-4.31,5.7,13.29,13.29,0,0,1-7.75,2.19,13.66,13.66,0,0,1-7.92-2.26,10.81,10.81,0,0,1-4.37-6c-.53-1.86-.8-5.44-.8-10.65V87.77h-8.87v24c0,6.94.78,12,2.39,15.57a18.5,18.5,0,0,0,7.39,8.36,23.28,23.28,0,0,0,12.18,3,23,23,0,0,0,12.11-3,18.79,18.79,0,0,0,7.36-8.26c1.63-3.49,2.42-8.46,2.42-15.19V87.77h-9Z"/><path class="cls-1" d="M481.45,90.35A16.81,16.81,0,0,0,472,87.68h0a24.92,24.92,0,0,0-12.22,3.15,15.63,15.63,0,0,0-5.6,5.79A15.33,15.33,0,0,0,451.83,93a16.71,16.71,0,0,0-5.11-3.78,16,16,0,0,0-6.58-1.48,18.26,18.26,0,0,0-11.83,2.13,21,21,0,0,0-7.51,6.86c-2.35,3.21-3.75,8-4.29,14.85v27.06h8.79V117.25c-.22-6.15.2-10.61,1.27-13.26a10.9,10.9,0,0,1,4.93-5.68,15.07,15.07,0,0,1,7.36-2,8.19,8.19,0,0,1,4.8,1.57,15,15,0,0,1,4.1,4.46c.76,1.24,1.67,4.12,1.67,10.79v25.43h8.84v-25c.78-7.22,1.87-10,2.68-11.13,2.53-3.81,5.8-5.8,9.9-6.09a9.8,9.8,0,0,1,5.51,1.5,7.92,7.92,0,0,1,3.14,3.88c.45,1.18,1,3.85,1,9.85v27h9v-27c0-6.08-.63-10.57-1.93-13.72A16,16,0,0,0,481.45,90.35Z"/><path class="cls-1" d="M524.63,86.57A24.79,24.79,0,0,0,513.71,89a25.23,25.23,0,0,0-6.49,4.61v-24h-8.79v46a33.8,33.8,0,0,0,4.81,13.16l.15.21a28.6,28.6,0,0,0,9.74,7.3,28,28,0,0,0,11.32,2.32,24.63,24.63,0,0,0,18.1-7.6,25.21,25.21,0,0,0,7.51-18.3,25.6,25.6,0,0,0-7.46-18.51A24.33,24.33,0,0,0,524.63,86.57Zm16.56,25.94a17.62,17.62,0,0,1-2.34,8.8,17.06,17.06,0,0,1-6.27,6.43,16.83,16.83,0,0,1-8.63,2.31A16.29,16.29,0,0,1,511.78,125a17.15,17.15,0,0,1-5-12.66,18.08,18.08,0,0,1,2.21-8.91,16.14,16.14,0,0,1,6.3-6.26A17.6,17.6,0,0,1,524,94.85a16.68,16.68,0,0,1,8.47,2.31,17,17,0,0,1,6.32,6.52A18,18,0,0,1,541.19,112.51Z"/><path class="cls-1" d="M601.9,94.85a25.88,25.88,0,0,0-38,.05,26.56,26.56,0,0,0,.38,35.95c4.79,5.16,11.05,7.78,18.72,7.78h0c7.29-.62,12.87-3.09,16.65-7.36v7.57h8.9l.24-1.09c.06-.28.12-.54,0-25A25.62,25.62,0,0,0,601.9,94.85Zm-2.38,17.85c-1.24,10.72-6.72,16.43-16.61,17.44a17,17,0,0,1-8.46-2.19,16,16,0,0,1-6.11-6.26,17.91,17.91,0,0,1-2.28-8.83,17.08,17.08,0,0,1,5-12.45,15.81,15.81,0,0,1,11.86-5.14,15.4,15.4,0,0,1,11.72,5.13A17.26,17.26,0,0,1,599.52,112.7Z"/><polygon class="cls-1" points="651.36 71.96 651.36 81 674.61 81 647.72 138.71 686.56 138.71 686.56 129.67 662.02 129.67 688.7 71.96 651.36 71.96"/><path class="cls-1" d="M744.78,113.06c0-6.72-1.87-12.44-5.47-17a24.74,24.74,0,0,0-20.37-9.72c-8.27,0-15,3.2-19.86,9.51a26.67,26.67,0,0,0-5.82,16.9,27,27,0,0,0,6.85,18c4.59,5.35,11,8.06,19.13,8.06a27.54,27.54,0,0,0,9.85-1.67,25,25,0,0,0,7.91-4.86,28.14,28.14,0,0,0,6.09-8.4l.61-1.22h-10a19.75,19.75,0,0,1-3,3.53,17.72,17.72,0,0,1-5.37,3.09,18.71,18.71,0,0,1-6.53,1.18,15.23,15.23,0,0,1-11.52-4.84,17.42,17.42,0,0,1-4.8-11.17h42.39ZM732.1,101a17,17,0,0,1,2.77,5.48H703.5A17.55,17.55,0,0,1,708,99.13,15.76,15.76,0,0,1,719,95a17.53,17.53,0,0,1,7.46,1.65A15.64,15.64,0,0,1,732.1,101Z"/><path class="cls-1" d="M773.06,130.22l-.56-1.55-1.44.78a7.86,7.86,0,0,1-7.46.39c-2.11-1.13-3.58-4.7-4.25-10.18V101.08h11.21V93H759.31V70.2h-8.95v50.41a18,18,0,0,0,2.57,10.29c2.94,5,7,7.65,12.2,7.93h.54a23.92,23.92,0,0,0,8.46-1.78l1.35-.51-.54-1.34C774.45,134,773.83,132.35,773.06,130.22Z"/><path class="cls-1" d="M816.26,87.56v23.49c0,7.14-.48,10-.88,11.14a11.06,11.06,0,0,1-4.33,5.75,13.4,13.4,0,0,1-7.82,2.21,13.8,13.8,0,0,1-8-2.28,10.85,10.85,0,0,1-4.4-6.09c-.53-1.87-.8-5.48-.8-10.73V87.56h-8.95v24.18c0,7,.79,12.12,2.41,15.69a18.66,18.66,0,0,0,7.45,8.42,23.54,23.54,0,0,0,12.28,3,23.22,23.22,0,0,0,12.2-3,19,19,0,0,0,7.42-8.32c1.64-3.52,2.44-8.53,2.44-15.32V87.56Z"/><path class="cls-1" d="M257,167.39h-5.42v17.89h2.12v-5.85h2.61a6.66,6.66,0,0,0,4.64-1.76,5.66,5.66,0,0,0,0-8.52A6.91,6.91,0,0,0,257,167.39Zm-.69,10.06h-2.61v-8.07h2.61a4.51,4.51,0,0,1,3.14,1.18,3.77,3.77,0,0,1,0,5.7A4.47,4.47,0,0,1,256.28,177.45Z"/><path class="cls-1" d="M273.46,177.67a5.67,5.67,0,0,0,0-8.52,7,7,0,0,0-4-1.76h-5.4v17.89h2.13v-5.85h2.62l4.06,5.76.06.09h2.59l-4.42-6.22A6.63,6.63,0,0,0,273.46,177.67Zm-7.24-8.29h2.6a4.51,4.51,0,0,1,3.14,1.18,3.77,3.77,0,0,1,0,5.7,4.47,4.47,0,0,1-3.14,1.19h-2.6Z"/><path class="cls-1" d="M286,167.15a10.22,10.22,0,0,0-7.08,2.68,8.62,8.62,0,0,0,0,13,10.71,10.71,0,0,0,14.17,0,8.6,8.6,0,0,0,0-13A10.22,10.22,0,0,0,286,167.15Zm0,16.35a8,8,0,0,1-5.58-2.12,6.73,6.73,0,0,1,0-10.13,8.45,8.45,0,0,1,11.17,0,6.72,6.72,0,0,1,0,10.14A8,8,0,0,1,286,183.5Z"/><path class="cls-1" d="M302.66,167.39h-5.42v17.89h2.13v-5.85H302a6.66,6.66,0,0,0,4.64-1.76,5.67,5.67,0,0,0,0-8.52A7,7,0,0,0,302.66,167.39ZM302,177.45h-2.6v-8.07H302a4.51,4.51,0,0,1,3.14,1.18,3.77,3.77,0,0,1,0,5.7A4.47,4.47,0,0,1,302,177.45Z"/><polygon class="cls-1" points="309.79 185.28 320.12 185.28 320.12 183.31 311.92 183.31 311.92 177.32 320.12 177.32 320.12 175.35 311.92 175.35 311.92 169.37 320.12 169.37 320.12 167.39 309.79 167.39 309.79 185.28"/><path class="cls-1" d="M331.34,177.67a5.66,5.66,0,0,0,0-8.52,6.94,6.94,0,0,0-4-1.76H322v17.89h2.12v-5.85h2.63l4.06,5.76.06.09h2.58L329,179.06A6.67,6.67,0,0,0,331.34,177.67Zm-7.25-8.29h2.61a4.51,4.51,0,0,1,3.14,1.18,3.77,3.77,0,0,1,0,5.7,4.47,4.47,0,0,1-3.14,1.19h-2.61Z"/><polygon class="cls-1" points="352.13 175.9 346.8 167.49 346.74 167.39 344.77 167.39 344.54 167.03 344.54 167.39 333.47 167.39 333.47 169.37 338.15 169.37 338.15 185.28 340.27 185.28 340.27 169.37 344.95 169.37 344.95 168.43 351.06 178.09 351.06 185.28 353.19 185.28 353.19 178.09 359.96 167.39 357.51 167.39 352.13 175.9"/><path class="cls-1" d="M393.16,167.39h-1.82L384.26,185v-17.6h-2.32l-6.42,7.68-6.44-7.68h-2.32v17.89h2.13V170.39l6.47,7.73.16.18,6.61-7.9v14.88h4.28l3-7.42h5.66l2.82,7.09.13.33h2.26l-7-17.55Zm1.12,8.51H390.2l2.05-5.12Z"/><polygon class="cls-1" points="414.04 182.07 402.72 167.6 402.56 167.39 400.42 167.39 400.42 185.28 402.55 185.28 402.55 170.97 413.58 185.07 413.74 185.28 416.16 185.28 416.16 167.39 414.04 167.39 414.04 182.07"/><path class="cls-1" d="M425.28,167.39h-1.82L416.37,185l-.11.28h2.26l3-7.42h5.65L430,185l.13.33h2.25l-7-17.55Zm1.12,8.51h-4.08l2-5.12Z"/><path class="cls-1" d="M442.09,169.19a8.08,8.08,0,0,1,5.22,1.8l.35.28,1.62-1.31-.46-.39a10.7,10.7,0,0,0-13.81.3,8.61,8.61,0,0,0,0,12.94,10.17,10.17,0,0,0,7.08,2.67,9.81,9.81,0,0,0,6.66-2.44l.17-.15v-6.21h-2.11v5.4a8.16,8.16,0,0,1-4.72,1.42,8,8,0,0,1-5.57-2.1,6.71,6.71,0,0,1,0-10.11A8,8,0,0,1,442.09,169.19Z"/><polygon class="cls-1" points="450.36 185.28 460.68 185.28 460.68 183.31 452.48 183.31 452.48 177.32 460.68 177.32 460.68 175.35 452.48 175.35 452.48 169.37 460.68 169.37 460.68 167.39 450.36 167.39 450.36 185.28"/><polygon class="cls-1" points="471.05 175.07 464.62 167.39 462.3 167.39 462.3 185.28 464.43 185.28 464.43 170.39 470.9 178.12 471.05 178.3 477.67 170.4 477.67 185.28 479.79 185.28 479.79 167.39 477.48 167.39 471.05 175.07"/><polygon class="cls-1" points="481.4 185.28 491.73 185.28 491.73 183.31 483.52 183.31 483.52 177.32 491.73 177.32 491.73 175.35 483.52 175.35 483.52 169.37 491.73 169.37 491.73 167.39 481.4 167.39 481.4 185.28"/><polygon class="cls-1" points="507.16 182.07 495.83 167.6 495.67 167.39 493.54 167.39 493.54 185.28 495.66 185.28 495.66 170.97 506.7 185.07 506.86 185.28 509.28 185.28 509.28 167.39 507.16 167.39 507.16 182.07"/><polygon class="cls-1" points="510.05 169.37 514.73 169.37 514.73 185.28 516.85 185.28 516.85 169.37 521.53 169.37 521.53 167.39 510.05 167.39 510.05 169.37"/><path class="cls-1" d="M534.53,173.94a7.5,7.5,0,0,1-2-1.19,2,2,0,0,1-.67-1.49,1.93,1.93,0,0,1,.67-1.5,2.4,2.4,0,0,1,1.67-.62,2.34,2.34,0,0,1,1.65.62,2,2,0,0,1,.55.76l.19.47,1.93-.69-.16-.46a3.53,3.53,0,0,0-1-1.46,4.76,4.76,0,0,0-6.3,0,3.83,3.83,0,0,0,0,5.77,8.52,8.52,0,0,0,3.31,1.76,7.8,7.8,0,0,1,2.62,1.56,3.29,3.29,0,0,1,0,5,4.19,4.19,0,0,1-5.55,0,3.2,3.2,0,0,1-1.12-2.08l-.07-.63-2.05.67.07.42a5.08,5.08,0,0,0,1.7,3,6.39,6.39,0,0,0,8.49,0,5.18,5.18,0,0,0,0-7.79A9.73,9.73,0,0,0,534.53,173.94Z"/><polygon class="cls-1" points="553.06 167.39 547.67 175.9 542.35 167.49 542.29 167.39 539.84 167.39 546.61 178.09 546.61 185.28 548.74 185.28 548.74 178.09 555.51 167.39 553.06 167.39"/><path class="cls-1" d="M561.45,173.94a7.5,7.5,0,0,1-2-1.19,2,2,0,0,1-.67-1.49,1.91,1.91,0,0,1,.68-1.5,2.36,2.36,0,0,1,1.66-.62,2.34,2.34,0,0,1,1.65.62,2,2,0,0,1,.55.76l.19.47,1.93-.69-.16-.46a3.53,3.53,0,0,0-1-1.46,4.76,4.76,0,0,0-6.3,0,3.83,3.83,0,0,0,0,5.77,8.59,8.59,0,0,0,3.31,1.76,7.8,7.8,0,0,1,2.62,1.56,3.29,3.29,0,0,1,0,5,4.19,4.19,0,0,1-5.55,0,3.2,3.2,0,0,1-1.12-2.08l-.07-.63-2,.67.07.42a5.13,5.13,0,0,0,1.7,3,6.39,6.39,0,0,0,8.49,0,5.18,5.18,0,0,0,0-7.79A9.73,9.73,0,0,0,561.45,173.94Z"/><polygon class="cls-1" points="567.17 169.37 571.86 169.37 571.86 185.28 573.97 185.28 573.97 169.37 578.66 169.37 578.66 167.39 567.17 167.39 567.17 169.37"/><polygon class="cls-1" points="579.46 185.28 589.79 185.28 589.79 183.31 581.59 183.31 581.59 177.32 589.79 177.32 589.79 175.35 581.59 175.35 581.59 169.37 589.79 169.37 589.79 167.39 579.46 167.39 579.46 185.28"/><polygon class="cls-1" points="606.58 167.39 600.16 175.07 593.72 167.39 591.4 167.39 591.4 185.28 593.53 185.28 593.53 170.39 600 178.12 600.16 178.3 606.77 170.4 606.77 185.28 608.9 185.28 608.9 167.39 606.58 167.39"/></svg>
