<svg id="Layer_1" data-name="Layer 1" xmlns="http://www.w3.org/2000/svg" viewBox="0 0 850.39 255.12"><defs><style>.cls-1{fill:#b97f33;}</style></defs><polygon class="cls-1" points="295.08 133.92 254.96 87.74 251.55 87.74 251.55 153.96 260.94 153.96 260.94 108.37 300.63 153.96 304.13 153.96 304.13 87.74 295.08 87.74 295.08 133.92"/><polygon class="cls-1" points="334.56 137.26 319.37 103.22 309.93 103.22 329.8 147.98 320.16 170.03 329.59 170.03 358.83 103.22 349.31 103.22 334.56 137.26"/><path class="cls-1" d="M397.09,126.51c0,7.09-.46,9.92-.86,11.06a10.94,10.94,0,0,1-4.31,5.7,13.22,13.22,0,0,1-7.75,2.19,13.73,13.73,0,0,1-7.92-2.25,10.84,10.84,0,0,1-4.37-6.05c-.53-1.86-.8-5.44-.8-10.65V103.22h-8.87v24c0,6.94.78,12,2.39,15.56a18.5,18.5,0,0,0,7.39,8.36,23.28,23.28,0,0,0,12.18,3,23,23,0,0,0,12.11-3,18.79,18.79,0,0,0,7.36-8.26c1.63-3.49,2.42-8.46,2.42-15.19V103.22h-9Z"/><path class="cls-1" d="M481.45,105.8a16.81,16.81,0,0,0-9.41-2.67h0a24.92,24.92,0,0,0-12.22,3.15,15.63,15.63,0,0,0-5.6,5.79,15.33,15.33,0,0,0-2.39-3.67,16.71,16.71,0,0,0-5.11-3.78,16,16,0,0,0-6.58-1.48,18.26,18.26,0,0,0-11.83,2.13,21,21,0,0,0-7.51,6.86c-2.35,3.21-3.75,8-4.29,14.85V154h8.79V132.71c-.22-6.16.2-10.62,1.27-13.26a10.88,10.88,0,0,1,4.93-5.69,15.06,15.06,0,0,1,7.36-2,8.18,8.18,0,0,1,4.8,1.56,15,15,0,0,1,4.1,4.46c.76,1.24,1.67,4.12,1.67,10.79V154h8.84V129c.78-7.21,1.87-10,2.68-11.13,2.53-3.81,5.8-5.8,9.9-6.08a9.79,9.79,0,0,1,5.51,1.49,7.9,7.9,0,0,1,3.14,3.89c.45,1.17,1,3.84,1,9.85v27h9V127c0-6.09-.63-10.58-1.93-13.73A16,16,0,0,0,481.45,105.8Z"/><path class="cls-1" d="M524.63,102a24.79,24.79,0,0,0-10.92,2.43,25.23,25.23,0,0,0-6.49,4.61v-24h-8.79v46a33.8,33.8,0,0,0,4.81,13.16l.15.21a28.6,28.6,0,0,0,9.74,7.3,28,28,0,0,0,11.32,2.32,24.59,24.59,0,0,0,18.1-7.6,25.21,25.21,0,0,0,7.51-18.3,25.62,25.62,0,0,0-7.46-18.51A24.33,24.33,0,0,0,524.63,102Zm16.56,26a17.68,17.68,0,0,1-2.34,8.8,17.21,17.21,0,0,1-6.27,6.43,16.82,16.82,0,0,1-8.63,2.3,16.29,16.29,0,0,1-12.17-5.05,17.15,17.15,0,0,1-5-12.65,18.1,18.1,0,0,1,2.21-8.92,16.14,16.14,0,0,1,6.3-6.26A17.6,17.6,0,0,1,524,110.3a16.68,16.68,0,0,1,8.47,2.31,17,17,0,0,1,6.32,6.53A17.94,17.94,0,0,1,541.19,128Z"/><path class="cls-1" d="M601.9,110.3a25.88,25.88,0,0,0-38,0,26.56,26.56,0,0,0,.38,36c4.79,5.16,11.05,7.78,18.72,7.78h0c7.29-.62,12.87-3.09,16.65-7.36v7.58h8.9l.24-1.1c.06-.28.12-.54,0-25A25.62,25.62,0,0,0,601.9,110.3Zm-2.38,17.85c-1.24,10.72-6.72,16.43-16.61,17.44a17,17,0,0,1-8.46-2.19,15.94,15.94,0,0,1-6.11-6.26,17.88,17.88,0,0,1-2.28-8.83,17.08,17.08,0,0,1,5-12.45,15.8,15.8,0,0,1,11.86-5.13,15.39,15.39,0,0,1,11.72,5.12A17.26,17.26,0,0,1,599.52,128.15Z"/><polygon class="cls-1" points="651.36 87.42 651.36 96.45 674.61 96.45 647.72 154.16 686.56 154.16 686.56 145.12 662.02 145.12 688.7 87.42 651.36 87.42"/><path class="cls-1" d="M744.78,128.52c0-6.73-1.87-12.45-5.47-17a24.74,24.74,0,0,0-20.37-9.72c-8.27,0-15,3.2-19.86,9.51a26.67,26.67,0,0,0-5.82,16.9,27,27,0,0,0,6.85,18c4.59,5.35,11,8.06,19.13,8.06a27.54,27.54,0,0,0,9.85-1.67,24.79,24.79,0,0,0,7.91-4.86,28.22,28.22,0,0,0,6.09-8.39l.61-1.23h-10a20.23,20.23,0,0,1-3,3.54,17.7,17.7,0,0,1-5.37,3.08,18.71,18.71,0,0,1-6.53,1.18,15.23,15.23,0,0,1-11.52-4.84,17.42,17.42,0,0,1-4.8-11.16h42.39ZM732.1,116.41a17.1,17.1,0,0,1,2.77,5.49H703.5a17.52,17.52,0,0,1,4.48-7.32,15.8,15.8,0,0,1,11-4.12,17.53,17.53,0,0,1,7.46,1.65A15.64,15.64,0,0,1,732.1,116.41Z"/><path class="cls-1" d="M773.06,145.67l-.56-1.55-1.44.78a7.86,7.86,0,0,1-7.46.39c-2.11-1.13-3.58-4.7-4.25-10.17V116.53h11.21v-8H759.31V85.65h-8.95v50.42a18,18,0,0,0,2.57,10.28c2.94,5,7,7.65,12.2,7.94h.54a24,24,0,0,0,8.46-1.79l1.35-.51-.54-1.34C774.45,149.47,773.83,147.8,773.06,145.67Z"/><path class="cls-1" d="M816.26,103V126.5c0,7.14-.48,10-.88,11.14a11.06,11.06,0,0,1-4.33,5.75,13.4,13.4,0,0,1-7.82,2.21,13.8,13.8,0,0,1-8-2.28,10.85,10.85,0,0,1-4.4-6.09c-.53-1.87-.8-5.48-.8-10.73V103h-8.95v24.17c0,7,.79,12.13,2.41,15.69a18.69,18.69,0,0,0,7.45,8.43,23.64,23.64,0,0,0,12.28,3,23.22,23.22,0,0,0,12.2-3,19,19,0,0,0,7.42-8.32c1.64-3.51,2.44-8.52,2.44-15.32V103Z"/><g id="icon-0"><path class="cls-1" d="M25.1,127.56A91.39,91.39,0,1,1,116.49,219,91.39,91.39,0,0,1,25.1,127.56Zm91.39,83.85a83.85,83.85,0,1,0-83.85-83.85,83.85,83.85,0,0,0,83.85,83.85Z"/><path class="cls-1" d="M171.61,120.32,152.8,101.51V84.45a7,7,0,0,0-7-7h-7.2a7,7,0,0,0-6.18,3.68L118.91,67.62a3.42,3.42,0,0,0-4.84,0l-52.71,52.7a3.44,3.44,0,0,0,2.43,5.85H77.5V165.6a16,16,0,0,0,16,16h47a16,16,0,0,0,16-16V126.17h12.78a3.42,3.42,0,0,0,2.42-5.85ZM121,148.14l6.59,7.7H121Zm-3.4,14.51h14v12.06h-28V142.32h10.58v16.93A3.41,3.41,0,0,0,117.56,162.65Zm32,2.95a9.12,9.12,0,0,1-9.12,9.11h-2.08V159.25a3.42,3.42,0,0,0-.82-2.22l-17.39-20.32a3.42,3.42,0,0,0-2.59-1.2H100.17a3.41,3.41,0,0,0-3.41,3.41v35.79H93.45a9.11,9.11,0,0,1-9.11-9.11V126.12h65.22ZM153,119.32H72.05l44.44-44.44,16,16.05a3.42,3.42,0,0,0,5.85-2.42l.18-4.24,7.38.18v18.48a3.46,3.46,0,0,0,1,2.42l14,14Z"/></g></svg>