<?xml version="1.0" encoding="utf-8"?>
<!-- Generator: Adobe Illustrator 16.0.0, SVG Export Plug-In . SVG Version: 6.00 Build 0)  -->
<!DOCTYPE svg PUBLIC "-//W3C//DTD SVG 1.1//EN" "http://www.w3.org/Graphics/SVG/1.1/DTD/svg11.dtd">
<svg version="1.1" id="Layer_1" xmlns="http://www.w3.org/2000/svg" xmlns:xlink="http://www.w3.org/1999/xlink" x="0px" y="0px"
	 width="190.496px" height="71.623px" viewBox="0 0 190.496 71.623" enable-background="new 0 0 190.496 71.623"
	 xml:space="preserve">
<text transform="matrix(1 0 0 1 9.6406 -73.9902)" font-family="'MyriadPro-Regular'" font-size="3.7739">___</text>
<image overflow="visible" width="517" height="231" xlink:href="../TRE 2022/Logo-e1630493706452.jpg"  transform="matrix(0.3145 0 0 0.3145 -4.0098 -100.8354)">
</image>
<g>
	<path d="M9.296,7.382v14.088H5.768V7.382h-5.33V4.154h14.188v3.229H9.296z"/>
	<path d="M27.289,21.471v-7.357H20.47v7.357h-3.528V4.154h3.528v6.732h6.819V4.154h3.541v17.317H27.289z"/>
	<path d="M34.571,21.471V4.154h11.248V7.27h-7.72v3.691h6.506v3.128h-6.506v4.154h7.72v3.228H34.571z"/>
	<path d="M11.611,48.559l-4.417-6.556H5.405v6.556H1.877V31.242H8.17c2.227,0,3.855,0.4,4.886,1.201s1.545,2.115,1.545,3.941
		c0,1.477-0.311,2.653-0.932,3.528c-0.622,0.876-1.503,1.435-2.646,1.677l4.629,6.969H11.611z M11.023,36.535
		c0-0.884-0.223-1.477-0.669-1.777s-1.182-0.451-2.208-0.451h-2.74v4.617h2.59c0.792,0,1.401-0.075,1.827-0.225
		c0.426-0.15,0.732-0.384,0.92-0.701C10.929,37.682,11.023,37.194,11.023,36.535z"/>
	<path d="M17.942,48.559V31.242H29.19v3.116h-7.72v3.691h6.506v3.128h-6.506v4.154h7.72v3.228H17.942z"/>
	<path d="M30.78,48.559l5.73-17.317h4.592l5.743,17.317h-3.616l-1.151-3.516h-6.669l-1.126,3.516H30.78z M36.41,41.953h4.667
		l-2.327-7.157L36.41,41.953z"/>
	<path d="M49.047,48.559V31.242h3.528v14.089h7.282v3.228H49.047z"/>
	<path d="M67.665,34.471v14.088h-3.528V34.471h-5.33v-3.229h14.188v3.229H67.665z"/>
	<path d="M88.785,39.901c0,3.011-0.636,5.268-1.908,6.769c-1.272,1.501-3.122,2.252-5.549,2.252c-2.561,0-4.444-0.791-5.649-2.372
		c-1.205-1.581-1.808-3.797-1.808-6.65c0-2.87,0.603-5.09,1.808-6.663c1.206-1.572,3.088-2.359,5.649-2.359
		c2.578,0,4.465,0.787,5.662,2.359S88.785,37.031,88.785,39.901z M85.145,39.901c0-2.052-0.29-3.547-0.87-4.486
		c-0.58-0.938-1.562-1.407-2.947-1.407s-2.367,0.469-2.947,1.407c-0.58,0.938-0.869,2.434-0.869,4.486
		c0,2.052,0.294,3.547,0.882,4.485s1.566,1.408,2.934,1.408c1.385,0,2.367-0.469,2.947-1.408
		C84.854,43.448,85.145,41.953,85.145,39.901z"/>
	<path d="M101.473,48.559l-4.417-6.556h-1.789v6.556h-3.528V31.242h6.293c2.228,0,3.856,0.4,4.887,1.201
		c1.029,0.801,1.545,2.115,1.545,3.941c0,1.477-0.311,2.653-0.933,3.528c-0.621,0.876-1.503,1.435-2.646,1.677l4.629,6.969H101.473z
		 M100.885,36.535c0-0.884-0.224-1.477-0.67-1.777s-1.183-0.451-2.208-0.451h-2.74v4.617h2.59c0.792,0,1.401-0.075,1.827-0.225
		c0.425-0.15,0.731-0.384,0.919-0.701C100.791,37.682,100.885,37.194,100.885,36.535z"/>
	<path d="M120.253,43.542c0,1.735-0.569,3.065-1.708,3.992c-1.139,0.926-2.817,1.389-5.036,1.389c-1.534,0-2.867-0.255-3.997-0.764
		c-1.131-0.509-2.05-1.331-2.759-2.465l2.715-2.077c0.4,0.567,0.779,0.993,1.139,1.276c0.358,0.284,0.784,0.505,1.276,0.663
		c0.492,0.159,1.059,0.238,1.701,0.238c0.959,0,1.708-0.165,2.246-0.494s0.807-0.832,0.807-1.508c0-0.384-0.094-0.705-0.281-0.963
		c-0.188-0.258-0.469-0.482-0.845-0.669c-0.375-0.188-1.025-0.402-1.951-0.645c-0.901-0.242-1.75-0.486-2.547-0.732
		c-0.797-0.246-1.484-0.565-2.064-0.957s-1.036-0.884-1.37-1.477s-0.5-1.339-0.5-2.24c0-1.643,0.555-2.925,1.664-3.847
		s2.698-1.383,4.767-1.383c2.995,0,5.113,1.026,6.356,3.078l-2.69,2.102c-0.476-0.734-1.009-1.259-1.602-1.577
		c-0.592-0.317-1.297-0.475-2.114-0.475s-1.482,0.148-1.996,0.444c-0.513,0.296-0.769,0.761-0.769,1.395
		c0,0.559,0.267,0.987,0.8,1.283c0.534,0.296,1.465,0.594,2.791,0.895c0.733,0.192,1.459,0.398,2.177,0.619
		c0.717,0.221,1.357,0.528,1.921,0.92c0.563,0.392,1.015,0.905,1.357,1.539C120.082,41.736,120.253,42.549,120.253,43.542z"/>
	<path d="M129.337,48.559V31.242h11.248v3.116h-7.72v3.691h6.506v3.128h-6.506v4.154h7.72v3.228H129.337z"/>
	<path d="M142.2,48.559l5.793-8.684l-5.644-8.633h4.017l3.591,5.831l3.716-5.831h3.892l-5.681,8.559l5.655,8.758h-3.966
		l-3.716-5.968l-3.767,5.968H142.2z"/>
	<path d="M172.453,37.048c0,2.085-0.49,3.633-1.47,4.642c-0.98,1.009-2.571,1.514-4.773,1.514h-2.878v5.355h-3.528V31.242h6.506
		c1.96,0,3.475,0.457,4.542,1.37C171.919,33.526,172.453,35.004,172.453,37.048z M168.813,37.073c0-0.976-0.27-1.681-0.808-2.115
		s-1.508-0.651-2.909-0.651h-1.764v5.818h1.438c1.293,0,2.188-0.089,2.685-0.269c0.496-0.179,0.846-0.482,1.051-0.907
		C168.71,38.524,168.813,37.899,168.813,37.073z"/>
	<path d="M189.42,39.901c0,3.011-0.636,5.268-1.908,6.769c-1.271,1.501-3.121,2.252-5.549,2.252c-2.561,0-4.444-0.791-5.649-2.372
		s-1.808-3.797-1.808-6.65c0-2.87,0.603-5.09,1.808-6.663s3.089-2.359,5.649-2.359c2.577,0,4.465,0.787,5.662,2.359
		C188.821,34.811,189.42,37.031,189.42,39.901z M185.779,39.901c0-2.052-0.29-3.547-0.87-4.486
		c-0.579-0.938-1.562-1.407-2.946-1.407s-2.367,0.469-2.946,1.407c-0.58,0.938-0.87,2.434-0.87,4.486
		c0,2.052,0.294,3.547,0.883,4.485c0.588,0.938,1.565,1.408,2.934,1.408c1.385,0,2.367-0.469,2.946-1.408
		C185.489,43.448,185.779,41.953,185.779,39.901z"/>
</g>
<rect x="0" y="55.723" fill="#E32428" width="188.722" height="15.899"/>
<g>
	<path fill="#FFFFFF" d="M9.776,67.189v-3.971H5.824v3.971H4.663v-8.682h1.161v3.657h3.952v-3.657h1.16v8.682H9.776z"/>
	<path fill="#FFFFFF" d="M18.602,63.915c0,1.142-0.246,2.005-0.737,2.591c-0.492,0.585-1.208,0.878-2.149,0.878
		s-1.66-0.289-2.158-0.869c-0.498-0.579-0.747-1.445-0.747-2.6c0-1.175,0.25-2.052,0.75-2.629c0.5-0.577,1.218-0.865,2.155-0.865
		c0.945,0,1.663,0.294,2.152,0.881C18.357,61.889,18.602,62.76,18.602,63.915z M17.485,63.915c0-0.896-0.147-1.545-0.442-1.951
		c-0.295-0.405-0.737-0.608-1.327-0.608c-0.606,0-1.056,0.204-1.349,0.611c-0.292,0.408-0.439,1.058-0.439,1.948
		c0,0.857,0.141,1.493,0.423,1.907s0.737,0.621,1.364,0.621c0.598,0,1.042-0.205,1.333-0.615
		C17.34,65.417,17.485,64.78,17.485,63.915z"/>
	<path fill="#FFFFFF" d="M27.98,67.189v-3.877c0-0.652-0.025-1.083-0.076-1.292c-0.05-0.209-0.138-0.354-0.263-0.437
		c-0.125-0.081-0.316-0.122-0.571-0.122c-0.218,0-0.462,0.078-0.734,0.232c-0.272,0.154-0.627,0.437-1.067,0.847v4.648h-1.079
		v-3.877c0-0.619-0.025-1.037-0.075-1.255c-0.05-0.217-0.136-0.371-0.257-0.461c-0.122-0.09-0.31-0.135-0.564-0.135
		c-0.234,0-0.508,0.094-0.822,0.279c-0.314,0.187-0.644,0.453-0.991,0.8v4.648h-1.079v-6.58h1.079v0.979
		c0.284-0.31,0.602-0.581,0.954-0.815c0.351-0.234,0.728-0.352,1.129-0.352c0.443,0,0.798,0.103,1.063,0.308
		c0.265,0.205,0.442,0.531,0.53,0.979c0.343-0.364,0.692-0.669,1.048-0.916s0.75-0.37,1.186-0.37c0.401,0,0.724,0.085,0.966,0.254
		c0.243,0.17,0.42,0.414,0.533,0.734c0.113,0.319,0.169,0.783,0.169,1.389v4.392H27.98z"/>
	<path fill="#FFFFFF" d="M31.926,64.027c0,0.87,0.148,1.49,0.445,1.86s0.774,0.556,1.43,0.556c0.293,0,0.55-0.063,0.771-0.186
		s0.435-0.323,0.64-0.599l0.891,0.552c-0.251,0.376-0.556,0.666-0.916,0.869c-0.36,0.202-0.847,0.304-1.462,0.304
		c-0.979,0-1.709-0.284-2.192-0.853c-0.483-0.569-0.725-1.429-0.725-2.579c0-1.204,0.235-2.094,0.706-2.669
		c0.471-0.575,1.181-0.862,2.13-0.862c0.853,0,1.493,0.246,1.919,0.737c0.427,0.491,0.64,1.247,0.64,2.268v0.602H31.926z
		 M35.15,63.18c-0.008-0.59-0.133-1.047-0.373-1.373c-0.241-0.326-0.63-0.49-1.17-0.49c-0.514,0-0.9,0.147-1.157,0.442
		c-0.257,0.295-0.428,0.769-0.511,1.421H35.15z"/>
	<path fill="#FFFFFF" d="M46.85,63.915c0,1.142-0.246,2.005-0.737,2.591c-0.492,0.585-1.208,0.878-2.149,0.878
		s-1.66-0.289-2.158-0.869c-0.498-0.579-0.747-1.445-0.747-2.6c0-1.175,0.25-2.052,0.75-2.629c0.5-0.577,1.218-0.865,2.155-0.865
		c0.945,0,1.663,0.294,2.152,0.881C46.605,61.889,46.85,62.76,46.85,63.915z M45.733,63.915c0-0.896-0.147-1.545-0.442-1.951
		c-0.295-0.405-0.737-0.608-1.327-0.608c-0.606,0-1.056,0.204-1.349,0.611c-0.292,0.408-0.439,1.058-0.439,1.948
		c0,0.857,0.141,1.493,0.423,1.907s0.737,0.621,1.364,0.621c0.598,0,1.042-0.205,1.333-0.615
		C45.588,65.417,45.733,64.78,45.733,63.915z"/>
	<path fill="#FFFFFF" d="M51.824,58.827c-0.122-0.063-0.274-0.117-0.458-0.163s-0.349-0.068-0.496-0.068
		c-0.364,0-0.617,0.093-0.759,0.278c-0.142,0.187-0.213,0.552-0.213,1.095v0.641h1.461v0.903h-1.461v5.677h-1.079v-5.677h-0.966
		v-0.903h0.966v-0.641c0-0.794,0.149-1.379,0.448-1.753c0.299-0.374,0.825-0.562,1.578-0.562c0.472,0,0.897,0.082,1.273,0.245
		L51.824,58.827z"/>
	<path fill="#FFFFFF" d="M59.646,61.675c-0.117-0.051-0.284-0.075-0.501-0.075c-0.322,0-0.633,0.074-0.932,0.223
		c-0.299,0.148-0.647,0.421-1.044,0.818v4.548H56.09v-6.58h1.079v1.066c0.301-0.306,0.618-0.576,0.95-0.813s0.702-0.354,1.107-0.354
		c0.271,0,0.489,0.044,0.652,0.132L59.646,61.675z"/>
	<path fill="#FFFFFF" d="M61.579,64.027c0,0.87,0.148,1.49,0.445,1.86s0.774,0.556,1.43,0.556c0.293,0,0.55-0.063,0.771-0.186
		s0.435-0.323,0.64-0.599l0.891,0.552c-0.251,0.376-0.556,0.666-0.916,0.869c-0.36,0.202-0.847,0.304-1.462,0.304
		c-0.979,0-1.709-0.284-2.192-0.853c-0.483-0.569-0.725-1.429-0.725-2.579c0-1.204,0.235-2.094,0.706-2.669
		c0.471-0.575,1.181-0.862,2.13-0.862c0.853,0,1.493,0.246,1.919,0.737c0.427,0.491,0.64,1.247,0.64,2.268v0.602H61.579z
		 M64.803,63.18c-0.008-0.59-0.133-1.047-0.373-1.373c-0.241-0.326-0.63-0.49-1.17-0.49c-0.514,0-0.9,0.147-1.157,0.442
		c-0.257,0.295-0.428,0.769-0.511,1.421H64.803z"/>
	<path fill="#FFFFFF" d="M71.314,67.189v-0.821c-0.334,0.292-0.671,0.535-1.01,0.728c-0.339,0.192-0.722,0.288-1.148,0.288
		c-0.627,0-1.112-0.191-1.453-0.574c-0.341-0.382-0.511-0.873-0.511-1.471c0-0.451,0.089-0.827,0.267-1.126s0.435-0.535,0.772-0.709
		c0.336-0.174,0.825-0.298,1.464-0.373l1.619-0.145v-0.319c0-0.507-0.141-0.852-0.423-1.035c-0.282-0.185-0.672-0.276-1.17-0.276
		c-0.443,0-0.785,0.077-1.026,0.232c-0.24,0.154-0.413,0.322-0.518,0.502l-0.884-0.54c0.201-0.363,0.507-0.643,0.919-0.837
		c0.412-0.195,0.923-0.292,1.534-0.292c0.945,0,1.623,0.172,2.033,0.515c0.41,0.343,0.615,0.937,0.615,1.781v4.473H71.314z
		 M71.314,63.852l-1.054,0.1c-0.715,0.063-1.219,0.202-1.512,0.418c-0.292,0.215-0.439,0.529-0.439,0.943
		c0,0.394,0.098,0.676,0.295,0.848c0.196,0.171,0.491,0.257,0.884,0.257c0.163,0,0.324-0.03,0.483-0.091
		c0.159-0.061,0.315-0.136,0.47-0.226c0.155-0.091,0.304-0.192,0.449-0.308c0.144-0.115,0.285-0.228,0.423-0.336V63.852z"/>
	<path fill="#FFFFFF" d="M74.526,67.189v-9.341h1.079v9.341H74.526z"/>
	<path fill="#FFFFFF" d="M82.506,58.94c0,0.251-0.057,0.421-0.169,0.511c-0.113,0.091-0.293,0.136-0.54,0.136
		c-0.264,0-0.445-0.057-0.546-0.17c-0.1-0.112-0.15-0.271-0.15-0.477c0-0.222,0.054-0.384,0.163-0.486
		c0.108-0.103,0.286-0.153,0.533-0.153c0.255,0,0.437,0.049,0.546,0.147C82.451,58.545,82.506,58.709,82.506,58.94z M81.257,67.189
		v-6.58h1.079v6.58H81.257z"/>
	<path fill="#FFFFFF" d="M88.603,67.189v-3.877c0-0.627-0.031-1.045-0.094-1.255c-0.063-0.209-0.166-0.36-0.308-0.454
		c-0.142-0.095-0.349-0.142-0.621-0.142c-0.276,0-0.598,0.104-0.966,0.313c-0.368,0.21-0.724,0.465-1.066,0.766v4.648h-1.079v-6.58
		h1.079v0.979c0.305-0.306,0.661-0.576,1.066-0.813c0.405-0.236,0.813-0.354,1.223-0.354c0.636,0,1.102,0.181,1.399,0.543
		c0.297,0.361,0.445,0.973,0.445,1.834v4.392H88.603z"/>
	<path fill="#FFFFFF" d="M94.261,67.189h-1.066l-2.302-6.58h1.161l1.706,5.169l1.694-5.169h1.117L94.261,67.189z"/>
	<path fill="#FFFFFF" d="M98.621,64.027c0,0.87,0.148,1.49,0.445,1.86s0.773,0.556,1.431,0.556c0.292,0,0.55-0.063,0.771-0.186
		s0.435-0.323,0.64-0.599l0.891,0.552c-0.251,0.376-0.556,0.666-0.916,0.869c-0.359,0.202-0.847,0.304-1.461,0.304
		c-0.979,0-1.71-0.284-2.193-0.853c-0.482-0.569-0.724-1.429-0.724-2.579c0-1.204,0.234-2.094,0.705-2.669s1.181-0.862,2.13-0.862
		c0.854,0,1.493,0.246,1.92,0.737c0.426,0.491,0.64,1.247,0.64,2.268v0.602H98.621z M101.846,63.18
		c-0.009-0.59-0.133-1.047-0.373-1.373c-0.241-0.326-0.631-0.49-1.17-0.49c-0.515,0-0.9,0.147-1.158,0.442
		c-0.257,0.295-0.428,0.769-0.511,1.421H101.846z"/>
	<path fill="#FFFFFF" d="M109.116,65.414c0,0.615-0.218,1.097-0.652,1.446c-0.436,0.349-1.054,0.523-1.857,0.523
		c-0.548,0-1.039-0.104-1.474-0.311c-0.436-0.207-0.753-0.499-0.954-0.875l0.866-0.527c0.33,0.531,0.861,0.797,1.593,0.797
		c0.478,0,0.834-0.091,1.07-0.272s0.354-0.428,0.354-0.737c0-0.184-0.042-0.333-0.126-0.448s-0.213-0.216-0.389-0.302
		c-0.176-0.085-0.535-0.201-1.079-0.348c-0.782-0.18-1.333-0.429-1.653-0.746c-0.319-0.318-0.479-0.74-0.479-1.268
		c0-0.581,0.209-1.048,0.627-1.399c0.418-0.351,0.998-0.526,1.738-0.526c0.572,0,1.054,0.113,1.442,0.339s0.674,0.497,0.854,0.815
		l-0.859,0.526c-0.344-0.514-0.83-0.771-1.462-0.771c-0.359,0-0.664,0.08-0.913,0.238c-0.249,0.159-0.373,0.406-0.373,0.74
		c0,0.298,0.108,0.513,0.326,0.646s0.559,0.257,1.022,0.37c0.744,0.192,1.259,0.372,1.543,0.539
		c0.285,0.168,0.495,0.374,0.631,0.618C109.048,64.727,109.116,65.038,109.116,65.414z"/>
	<path fill="#FFFFFF" d="M113.996,67.189c-0.418,0.13-0.832,0.194-1.242,0.194c-0.669,0-1.149-0.176-1.439-0.526
		c-0.291-0.352-0.437-0.903-0.437-1.656v-3.688h-0.94v-0.903h0.94v-1.832h1.079v1.832h1.669v0.903h-1.669v3.481
		c0,0.531,0.054,0.911,0.16,1.142c0.106,0.229,0.344,0.345,0.712,0.345c0.318,0,0.613-0.059,0.885-0.176L113.996,67.189z"/>
	<path fill="#FFFFFF" d="M120.615,63.915c0,1.142-0.246,2.005-0.737,2.591c-0.491,0.585-1.208,0.878-2.148,0.878
		c-0.941,0-1.66-0.289-2.158-0.869c-0.498-0.579-0.746-1.445-0.746-2.6c0-1.175,0.249-2.052,0.749-2.629s1.218-0.865,2.155-0.865
		c0.944,0,1.662,0.294,2.151,0.881C120.37,61.889,120.615,62.76,120.615,63.915z M119.498,63.915c0-0.896-0.147-1.545-0.442-1.951
		c-0.295-0.405-0.736-0.608-1.326-0.608c-0.606,0-1.057,0.204-1.349,0.611c-0.293,0.408-0.439,1.058-0.439,1.948
		c0,0.857,0.142,1.493,0.424,1.907s0.736,0.621,1.364,0.621c0.598,0,1.042-0.205,1.333-0.615
		C119.353,65.417,119.498,64.78,119.498,63.915z"/>
	<path fill="#FFFFFF" d="M125.972,61.675c-0.117-0.051-0.284-0.075-0.502-0.075c-0.321,0-0.632,0.074-0.932,0.223
		c-0.299,0.148-0.646,0.421-1.044,0.818v4.548h-1.079v-6.58h1.079v1.066c0.301-0.306,0.618-0.576,0.95-0.813
		c0.333-0.236,0.701-0.354,1.107-0.354c0.271,0,0.489,0.044,0.652,0.132L125.972,61.675z"/>
	<path fill="#FFFFFF" d="M131.743,65.414c0,0.615-0.218,1.097-0.652,1.446c-0.436,0.349-1.054,0.523-1.857,0.523
		c-0.548,0-1.039-0.104-1.474-0.311c-0.436-0.207-0.753-0.499-0.954-0.875l0.866-0.527c0.33,0.531,0.861,0.797,1.593,0.797
		c0.478,0,0.834-0.091,1.07-0.272s0.354-0.428,0.354-0.737c0-0.184-0.042-0.333-0.126-0.448s-0.213-0.216-0.389-0.302
		c-0.176-0.085-0.535-0.201-1.079-0.348c-0.782-0.18-1.333-0.429-1.653-0.746c-0.319-0.318-0.479-0.74-0.479-1.268
		c0-0.581,0.209-1.048,0.627-1.399c0.418-0.351,0.998-0.526,1.738-0.526c0.572,0,1.054,0.113,1.442,0.339s0.674,0.497,0.854,0.815
		l-0.859,0.526c-0.344-0.514-0.83-0.771-1.462-0.771c-0.359,0-0.664,0.08-0.913,0.238c-0.249,0.159-0.373,0.406-0.373,0.74
		c0,0.298,0.108,0.513,0.326,0.646s0.559,0.257,1.022,0.37c0.744,0.192,1.259,0.372,1.543,0.539
		c0.285,0.168,0.495,0.374,0.631,0.618C131.675,64.727,131.743,65.038,131.743,65.414z"/>
</g>
</svg>
